<?xml version="1.0" encoding="UTF-8" standalone="no"?>
<svg
   xmlns:dc="http://purl.org/dc/elements/1.1/"
   xmlns:cc="http://creativecommons.org/ns#"
   xmlns:rdf="http://www.w3.org/1999/02/22-rdf-syntax-ns#"
   xmlns:svg="http://www.w3.org/2000/svg"
   xmlns="http://www.w3.org/2000/svg"
   version="1.1"
   id="svg7061"
   viewBox="0 0 298.84899 328.04627"
   height="92.581947mm"
   width="84.341827mm">
  <defs
     id="defs7063">
    <marker
       style="overflow:visible"
       id="Arrow1Mend"
       refX="0"
       refY="0"
       orient="auto">
      <path
         transform="matrix(-0.4,0,0,-0.4,-4,0)"
         style="fill:#fc8d82;fill-opacity:1;fill-rule:evenodd;stroke:#fc8d82;stroke-width:1pt;stroke-opacity:1"
         d="M 0,0 5,-5 -12.5,0 5,5 0,0 Z"
         id="path7708" />
    </marker>
    <marker
       style="overflow:visible"
       id="Arrow1Mstart"
       refX="0"
       refY="0"
       orient="auto">
      <path
         transform="matrix(0.4,0,0,0.4,4,0)"
         style="fill:#fc8d82;fill-opacity:1;fill-rule:evenodd;stroke:#fc8d82;stroke-width:1pt;stroke-opacity:1"
         d="M 0,0 5,-5 -12.5,0 5,5 0,0 Z"
         id="path7705" />
    </marker>
  </defs>
  <metadata
     id="metadata7066">
    <rdf:RDF>
      <cc:Work
         rdf:about="">
        <dc:format>image/svg+xml</dc:format>
        <dc:type
           rdf:resource="http://purl.org/dc/dcmitype/StillImage" />
        <dc:title></dc:title>
      </cc:Work>
    </rdf:RDF>
  </metadata>
  <g
     transform="translate(-280.82414,-528.52741)"
     id="layer1">
    <path
       id="path7678"
       d="M 386.07009,749.50215 C 153.97935,642.02252 372.81359,577.98343 506.60227,634.47652 Z"
       style="fill:#285668;fill-opacity:1;fill-rule:evenodd;stroke:none;stroke-width:3;stroke-linecap:butt;stroke-linejoin:miter;stroke-miterlimit:4;stroke-dasharray:none;stroke-opacity:1" />
    <path
       id="path7682"
       d="m 506.52148,634.55273 0.0801,-0.0762 c -0.0674,-0.0284 -0.13569,-0.0556 -0.20312,-0.084 -0.13735,-0.17634 -0.27035,-0.35086 -0.40821,-0.52735 l -0.26171,0.25 m 36.0371,186.45704 C 510.59601,836.702 453.3661,818.65713 386.04688,749.49219 307.10447,712.93073 280.3455,681.39789 284.66406,657.92578 l -0.10742,-0.0684 c -14.58753,67.28122 14.40621,136.50852 72.58594,173.31446 58.17973,36.80594 133.15564,33.35116 187.70312,-8.6504 z"
       style="fill:#142735;fill-opacity:1;fill-rule:evenodd;stroke:none;stroke-width:3;stroke-linecap:butt;stroke-linejoin:miter;stroke-miterlimit:4;stroke-dasharray:none;stroke-opacity:1" />
    <path
       id="path7680"
       d="m 385.97618,749.35316 c 153.26114,157.90651 255.91105,58.5923 120.09483,-114.45263 z"
       style="fill:#ececec;fill-opacity:1;fill-rule:evenodd;stroke:none;stroke-width:3;stroke-linecap:butt;stroke-linejoin:miter;stroke-miterlimit:4;stroke-dasharray:none;stroke-opacity:1" />
    <path
       id="path7693"
       d="M 479.06954,534.135 446.03026,691.37749 575.12818,592.25966"
       style="fill:none;fill-rule:evenodd;stroke:#fc8d82;stroke-width:3;stroke-linecap:butt;stroke-linejoin:miter;stroke-miterlimit:4;stroke-dasharray:none;stroke-dashoffset:0;stroke-opacity:1;marker-start:url(#Arrow1Mstart);marker-end:url(#Arrow1Mend)" />
    <text
       id="text8019"
       y="686.58582"
       x="298.27173"
       style="font-style:italic;font-variant:normal;font-weight:300;font-stretch:normal;font-size:93.75px;line-height:125%;font-family:'Open Sans';-inkscape-font-specification:'Open Sans Light Italic';text-align:start;letter-spacing:0px;word-spacing:0px;writing-mode:lr-tb;text-anchor:start;fill:#ffffff;fill-opacity:1;stroke:none;stroke-width:1px;stroke-linecap:butt;stroke-linejoin:miter;stroke-opacity:1"
       xml:space="preserve"><tspan
         y="686.58582"
         x="298.27173"
         id="tspan8021">wig</tspan></text>
  </g>
</svg>
